<?xml version="1.0" encoding="utf-8"?>
<!-- Generator: Adobe Illustrator 24.0.2, SVG Export Plug-In . SVG Version: 6.00 Build 0)  -->
<svg version="1.1" id="Layer_1" xmlns:figma="http://www.figma.com/figma/ns"
	 xmlns="http://www.w3.org/2000/svg" xmlns:xlink="http://www.w3.org/1999/xlink" x="0px" y="0px" viewBox="0 0 52.3 50.8"
	 style="enable-background:new 0 0 52.3 50.8;" xml:space="preserve">
<style type="text/css">
	.st0{fill:#FF4400;}
	.st1{fill:#231F20;}
</style>
<title>Logo</title>
<g transform="translate(-1470)" figma:type="canvas">
	<g transform="translate(1470)" figma:type="vector">
		<g>
			<path id="b" class="st0" d="M-2.2-3.5c0.3,0.3,0.1,0.8-0.4,0.8h-5.9C-8.7-2.7-9-2.8-9.2-3l-9.4-10.5v10.4c0,0.3-0.2,0.5-0.5,0.5
				h-5.3c-0.3,0-0.5-0.2-0.5-0.5v-23c0-0.3,0.2-0.5,0.5-0.5h5.3c0.3,0,0.5,0.2,0.5,0.5v9.8l9.1-10c0.2-0.2,0.5-0.3,0.7-0.3H-3
				c0.4,0,0.7,0.5,0.4,0.8l-9.9,10.6L-2.2-3.5L-2.2-3.5z"/>
		</g>
		<g>
			<path id="c" class="st0" d="M21.1-2.7c-0.2,0-0.4-0.1-0.5-0.3l-2-4.7H7.9L5.9-3C5.8-2.8,5.6-2.7,5.4-2.7H0.2
				c-0.4,0-0.6-0.4-0.5-0.7l10.8-23c0.1-0.2,0.3-0.3,0.5-0.3h4.4c0.2,0,0.4,0.1,0.5,0.3l10.8,23c0.2,0.3-0.1,0.7-0.5,0.7
				C26.2-2.7,21.1-2.7,21.1-2.7z M9.9-12.4h6.6l-3.3-7.7L9.9-12.4L9.9-12.4z"/>
		</g>
		<g>
			<path id="d" class="st0" d="M30.6-2.7c-0.3,0-0.5-0.2-0.5-0.5v-23c0-0.3,0.2-0.5,0.5-0.5h5.3c0.3,0,0.5,0.2,0.5,0.5v18.4h9.8
				c0.3,0,0.5,0.2,0.5,0.5v4.1c0,0.3-0.2,0.5-0.5,0.5H30.6z"/>
		</g>
		<g>
			<path id="e" class="st0" d="M50.4-26.2c0-0.3,0.2-0.5,0.5-0.5h9.3c2.7,0,5,0.5,6.9,1.4c1.9,1,3.4,2.3,4.4,4.2
				c1,1.8,1.5,3.9,1.5,6.4c0,2.5-0.5,4.7-1.5,6.5c-1,1.8-2.5,3.2-4.4,4.1c-1.9,1-4.2,1.4-6.9,1.4h-9.3c-0.3,0-0.5-0.2-0.5-0.5V-26.2
				z M59.7-7.7c2.4,0,4.1-0.6,5.3-1.7s1.7-2.9,1.7-5.2c0-2.3-0.6-4.1-1.7-5.2c-1.2-1.2-2.9-1.7-5.3-1.7h-3.1v13.9H59.7z"/>
		</g>
		<g>
			<path id="f" class="st0" d="M78-2.7c-0.3,0-0.5-0.2-0.5-0.5v-23c0-0.3,0.2-0.5,0.5-0.5h5.3c0.3,0,0.5,0.2,0.5,0.5v23
				c0,0.3-0.2,0.5-0.5,0.5H78z"/>
		</g>
		<g>
			<g>
				<path class="st1" d="M17.8,6h2.7v7.8h4.2v2.4h-6.9V6z"/>
				<path class="st1" d="M31.9,15.4h-3.7l-0.4,0.8H25l4.6-10.4h0.8l4.6,10.4h-2.9L31.9,15.4z M30.1,10.9l-0.9,2.4H31L30.1,10.9z"/>
			</g>
			<g>
				<path class="st1" d="M6.6,34.4c2,0,3.7,1,4.7,2.7l-2,1.4c-0.7-1.1-1.5-1.7-2.7-1.7c-1.6,0-2.8,1.1-2.8,2.9
					c0,0.8,0.3,1.5,0.8,2.1c0.5,0.5,1.2,0.8,2,0.8c1.1,0,2-0.6,2.7-1.7l2,1.4C10.3,44,8.6,45,6.5,45c-3,0-5.6-2.3-5.5-5.3
					C1,36.8,3.5,34.4,6.6,34.4z"/>
				<path class="st1" d="M17.6,34.4c3-0.1,5.6,2.4,5.5,5.3c0.1,2.9-2.5,5.3-5.5,5.3c-3,0-5.5-2.3-5.5-5.3
					C12.1,36.8,14.6,34.4,17.6,34.4z M17.6,36.9c-1.6,0-2.8,1.2-2.8,2.8c0,0.8,0.3,1.5,0.8,2.1c0.5,0.5,1.2,0.8,2,0.8
					c1.6,0,2.8-1.1,2.8-2.8C20.4,38,19.2,36.9,17.6,36.9z"/>
				<path class="st1" d="M30.7,44.8l-2.3-3.2h-1.1v3.2h-2.7V34.6h4c2.3,0,3.9,1.4,3.9,3.5c0,1.2-0.6,2.3-1.6,2.9l2.7,3.8H30.7z
					 M27.3,39.3h1.4c0.7,0,1.2-0.5,1.2-1.2c0-0.7-0.5-1.2-1.2-1.2h-1.4V39.3z"/>
				<path class="st1" d="M36.5,37h-3.1v-2.4h8.8V37h-3.1v7.8h-2.7V37z"/>
				<path class="st1" d="M48.1,44h-3.7L44,44.8h-2.9l4.6-10.4h0.8l4.6,10.4h-2.9L48.1,44z M46.3,39.5l-0.9,2.4h1.8L46.3,39.5z"/>
			</g>
			<g>
				<path class="st1" d="M9.5,20.2c2,0,3.7,1,4.7,2.7l-2,1.4c-0.7-1.1-1.5-1.7-2.7-1.7c-1.6,0-2.8,1.1-2.8,2.9
					c0,0.8,0.3,1.5,0.8,2.1c0.5,0.5,1.2,0.8,2,0.8c1.1,0,2-0.6,2.7-1.7l2,1.4c-0.9,1.7-2.6,2.7-4.7,2.7c-3,0-5.6-2.3-5.5-5.3
					C3.9,22.5,6.4,20.1,9.5,20.2z"/>
				<path class="st1" d="M15.6,20.3h2.7v10.2h-2.7V20.3z"/>
				<path class="st1" d="M29.3,20.3v10.4h-0.8L23,25.3v5.2h-2.7V20.2h0.8l5.5,5.3v-5.1H29.3z"/>
				<path class="st1" d="M33.6,22.7h-3.1v-2.4h8.8v2.4h-3.1v7.8h-2.7V22.7z"/>
				<path class="st1" d="M45.2,29.7h-3.7l-0.4,0.8h-2.9l4.6-10.4h0.8l4.6,10.4h-2.9L45.2,29.7z M43.3,25.2l-0.9,2.4h1.8L43.3,25.2z"
					/>
			</g>
		</g>
	</g>
</g>
</svg>
